<svg xmlns="http://www.w3.org/2000/svg">
	<svg id="logo" width="142" height="33" viewBox="0 0 142 33" fill="none" xmlns="http://www.w3.org/2000/svg">
		<path d="M3.66455 29.0081H13.966L25.0072 11.6738H14.7023L3.66455 29.0081Z" fill="#E4FF9A" />
		<path d="M19.6147 20.3402L24.9712 28.8374H35.4313L40.7156 20.4464L40.6471 20.3402L30.3023 3.91553H20.1056L30.4504 20.3402H19.6147Z" fill="#E4FF9A" />
		<qmask id="mask0_5117_10107" style="mask-type:luminance" maskUnits="userSpaceOnUse" x="49" y="3" width="90" height="26">
			<path d="M138.188 3.96729H49.877V28.956H138.188V3.96729Z" fill="white" />
		</qmask>
		<g mask="url(#mask0_5117_10107)">
			<path d="M49.877 28.4609V3.96729H60.3593C61.8993 3.96729 63.2711 4.23393 64.4487 4.75454C65.6265 5.27513 66.5452 6.03698 67.1923 7.01469C67.8523 7.9924 68.1759 9.16058 68.1759 10.5192V10.9001C68.1759 12.4366 67.8007 13.6682 67.05 14.5951C66.2993 15.5221 65.3934 16.1696 64.3194 16.5379V17.0965C65.2252 17.1473 65.9499 17.4394 66.4935 17.9854C67.037 18.5314 67.3089 19.3186 67.3089 20.3471V28.4609H63.4265V20.8678C63.4265 20.2328 63.2581 19.7377 62.9217 19.3693C62.5853 19.0012 62.0547 18.8108 61.317 18.8108H53.7335V28.4735H49.877V28.4609ZM53.7335 15.3697H59.9322C61.317 15.3697 62.3781 15.0268 63.1418 14.3412C63.9053 13.6555 64.2805 12.7159 64.2805 11.5223V11.243C64.2805 10.0494 63.9053 9.10979 63.1546 8.42413C62.4041 7.73845 61.3298 7.39562 59.9322 7.39562H53.7335V15.3697Z" fill="white" />
			<path d="M78.271 28.9563C76.4851 28.9563 74.9321 28.5881 73.5991 27.8516C72.2661 27.1152 71.2309 26.074 70.4802 24.7408C69.7297 23.3948 69.3545 21.8457 69.3545 20.068V19.649C69.3545 17.8587 69.7297 16.2842 70.4544 14.9382C71.1791 13.5923 72.2145 12.5638 73.5344 11.8273C74.8544 11.0909 76.3816 10.7227 78.1156 10.7227C79.8499 10.7227 81.2863 11.0909 82.5544 11.8273C83.8227 12.5638 84.8193 13.5796 85.5309 14.8874C86.2428 16.1953 86.605 17.719 86.605 19.4712V20.8425H73.0945C73.1462 22.3535 73.6638 23.5726 74.6473 24.4614C75.6309 25.3502 76.8603 25.8074 78.3357 25.8074C79.7203 25.8074 80.7557 25.5026 81.4545 24.893C82.1534 24.2836 82.6968 23.5853 83.0721 22.7979L86.1004 24.3345C85.764 24.982 85.2851 25.6803 84.6509 26.404C84.0168 27.1278 83.2016 27.7374 82.1662 28.2199C81.144 28.7151 79.8368 28.9563 78.245 28.9563H78.271ZM73.1333 18.0745H82.865C82.7745 16.7667 82.2957 15.7509 81.4415 15.0144C80.5873 14.278 79.4744 13.9097 78.0898 13.9097C76.705 13.9097 75.592 14.278 74.725 15.0144C73.858 15.7509 73.3274 16.7667 73.1333 18.0745Z" fill="white" />
			<path d="M88.7136 28.4611V11.2178H92.3113V13.2494H92.8808C93.2172 12.6399 93.7478 12.1066 94.4854 11.6368C95.2231 11.167 96.2195 10.9385 97.4748 10.9385C98.7301 10.9385 99.8301 11.2051 100.632 11.7257C101.435 12.2463 102.03 12.9193 102.431 13.7319H103.001C103.402 12.9447 103.997 12.2717 104.761 11.7384C105.537 11.2051 106.637 10.9385 108.061 10.9385C109.2 10.9385 110.209 11.167 111.089 11.6241C111.969 12.0813 112.668 12.7542 113.198 13.6557C113.716 14.5573 113.988 15.6619 113.988 16.9952V28.4738H110.312V17.2745C110.312 16.2207 110.015 15.4207 109.432 14.8366C108.85 14.2525 108.022 13.9732 106.948 13.9732C105.809 13.9732 104.89 14.3414 104.204 15.0525C103.518 15.7762 103.169 16.8174 103.169 18.1634V28.4483H99.4937V17.2491C99.4937 16.1953 99.196 15.3953 98.6137 14.8112C98.0312 14.2271 97.2031 13.9478 96.129 13.9478C94.9901 13.9478 94.0714 14.316 93.3854 15.0271C92.6995 15.7508 92.3501 16.792 92.3501 18.138V28.423H88.6748L88.7136 28.4611Z" fill="white" />
			<path d="M116.861 28.4609V3.96729H132.274V7.39562H120.717V14.4682H131.342V17.8965H120.717V28.4609H116.861Z" fill="white" />
			<path d="M135.652 8.86853C134.94 8.86853 134.344 8.63999 133.853 8.18287C133.361 7.72576 133.128 7.14167 133.128 6.41791C133.128 5.69415 133.374 5.11006 133.853 4.65295C134.344 4.19585 134.94 3.96729 135.652 3.96729C136.363 3.96729 136.997 4.19585 137.476 4.65295C137.955 5.11006 138.188 5.69415 138.188 6.41791C138.188 7.14167 137.955 7.72576 137.476 8.18287C136.997 8.63999 136.389 8.86853 135.652 8.86853ZM133.801 28.4609V11.2176H137.476V28.4735H133.801V28.4609Z" fill="white" />
		</g>
	</svg>
	<svg id="rocket" width="120" height="120" viewBox="0 0 120 120" fill="none" xmlns="http://www.w3.org/2000/svg">
		<path d="M88.685 73.11L76.555 84.26C70.3174 89.6982 62.9883 93.7387 55.06 96.11L58.28 111.13C58.4446 111.896 58.7871 112.613 59.2799 113.223C59.7727 113.833 60.4019 114.318 61.1168 114.64C61.8317 114.961 62.6122 115.11 63.3953 115.075C64.1784 115.039 64.9422 114.82 65.625 114.435L85.15 103.425C87.8986 101.755 90.0457 99.2553 91.2814 96.2861C92.5171 93.3169 92.7775 90.0318 92.025 86.905L88.685 73.11ZM36.33 43.88L46.77 31.48L33.75 28.34C30.5835 27.2385 27.1257 27.3186 24.0136 28.5654C20.9015 29.8123 18.3449 32.1419 16.815 35.125L5.81496 54.625C5.42982 55.3078 5.21063 56.0716 5.17507 56.8547C5.13951 57.6378 5.28858 58.4183 5.61026 59.1332C5.93193 59.848 6.41719 60.4773 7.02686 60.9701C7.63653 61.4628 8.35352 61.8054 9.11996 61.97L24.485 65.265C27.034 57.4468 31.0545 50.1881 36.33 43.88ZM83.67 44.08C85.1533 44.08 86.6034 43.6401 87.8367 42.816C89.0701 41.9919 90.0314 40.8206 90.5991 39.4501C91.1667 38.0797 91.3152 36.5717 91.0258 35.1168C90.7365 33.662 90.0222 32.3256 88.9733 31.2767C87.9244 30.2278 86.588 29.5135 85.1331 29.2241C83.6783 28.9347 82.1703 29.0832 80.7998 29.6509C79.4294 30.2186 78.2581 31.1798 77.4339 32.4132C76.6098 33.6466 76.17 35.0966 76.17 36.58C76.17 38.5691 76.9601 40.4768 78.3667 41.8833C79.7732 43.2898 81.6808 44.08 83.67 44.08Z" fill="#92948C" />
		<path opacity="0.5" d="M113.005 10.3098C112.78 9.45302 112.331 8.67145 111.705 8.04506C111.078 7.41866 110.297 6.96993 109.44 6.74478C99.184 4.08029 88.3838 4.36699 78.2835 7.57188C68.1832 10.7768 59.1936 16.7695 52.3501 24.8598L36.3301 43.8798C28.3295 53.4231 23.2531 65.0725 21.7101 77.4298C21.6103 78.1895 21.6864 78.962 21.9326 79.6877C22.1788 80.4133 22.5885 81.0727 23.1301 81.6148L38.6301 97.1148C39.0949 97.5797 39.6468 97.9484 40.2542 98.1998C40.8616 98.4512 41.5127 98.5803 42.1701 98.5798L42.6001 98.5598C55.1487 97.5217 67.0404 92.5128 76.5501 84.2598L94.8701 67.4198C102.991 60.595 109.006 51.604 112.216 41.4935C115.425 31.383 115.702 20.5689 113.005 10.3098ZM83.6701 44.0798C82.1867 44.0798 80.7367 43.6399 79.5033 42.8158C78.2699 41.9917 77.3086 40.8204 76.741 39.4499C76.1733 38.0795 76.0248 36.5715 76.3142 35.1166C76.6036 33.6617 77.3179 32.3254 78.3668 31.2765C79.4157 30.2276 80.752 29.5133 82.2069 29.2239C83.6618 28.9345 85.1698 29.083 86.5402 29.6507C87.9107 30.2183 89.082 31.1796 89.9061 32.413C90.7302 33.6464 91.1701 35.0964 91.1701 36.5798C91.1701 38.5689 90.3799 40.4766 88.9734 41.8831C87.5669 43.2896 85.6592 44.0798 83.6701 44.0798Z" fill="#92948C" />
	</svg>
	<svg id="wallet" width="120" height="120" viewBox="0 0 120 120" fill="none" xmlns="http://www.w3.org/2000/svg">
		<path opacity="0.8" d="M47.252 11.9146C51.3635 10.0601 56.4855 10.4437 63.5 13.0259L49.3564 45.8501H35.5996C32.7232 45.8501 29.9796 46.3024 27.373 47.2095L35.4355 27.9546L35.6357 27.5044L35.6445 27.4839L35.6523 27.4634L35.9463 26.6782C36.1253 26.259 36.1792 26.076 36.293 25.8862L36.3184 25.8433L36.3389 25.7974C39.5954 18.2652 42.9862 13.8386 47.252 11.9146Z" fill="#92948C" stroke="#92948C" stroke-width="1.5" />
		<path d="M65.2983 13.7202C65.6559 13.8657 66.0392 14.0171 66.4272 14.1479L77.4595 18.7915L77.4624 18.7925C83.5721 21.3258 87.7341 23.9176 90.2671 26.9731C90.7061 27.5589 91.0848 28.0809 91.4614 28.6929L91.4653 28.6997L91.4692 28.7056C91.8928 29.3644 92.2018 29.992 92.3755 30.6431L92.3911 30.7007L92.4146 30.7544C92.6036 31.1798 92.7328 31.5297 92.8179 31.9126L92.8247 31.9419L92.8325 31.9692C94.0172 35.8421 93.3737 40.6011 90.9966 46.6978C88.8826 46.1456 86.6831 45.8501 84.3999 45.8501H50.9897L64.9028 13.5591C65.0311 13.6109 65.1625 13.665 65.2983 13.7202Z" fill="#92948C" stroke="#92948C" stroke-width="1.5" />
		<path opacity="0.4" d="M35.6003 47.3501H84.4001C86.7735 47.3501 89.0494 47.689 91.2302 48.3179H91.2312C100.927 51.2752 108.05 60.2923 108.05 71.0005V80.7505C108.05 81.7278 108.001 82.709 107.951 83.6597C107.483 92.2801 104.856 98.6402 100.179 102.855C95.4958 107.076 88.6399 109.25 79.4998 109.25H40.4998C39.2911 109.25 38.1745 109.153 37.0466 109.006L37.0232 109.003L36.9998 109.001L36.2712 108.948C28.8035 108.336 23.1364 106.014 19.1794 102.063C15.0949 97.9843 12.7397 92.0775 12.198 84.2485L12.197 84.228L12.1941 84.2075L12.0935 83.3306C12.0041 82.4637 11.95 81.6187 11.95 80.7505V71.0005C11.95 61.4138 17.6776 53.1372 25.9031 49.4126L26.2966 49.2388L26.2986 49.2378C29.2005 47.9804 32.2989 47.3501 35.6003 47.3501Z" fill="#92948C" stroke="#92948C" stroke-width="1.5" />
		<path opacity="0.6" d="M25.4236 47.9839C19.1925 50.7601 14.2894 55.9888 11.95 62.437V56.3501C11.95 43.0109 21.097 31.8001 33.4968 28.6987L25.4236 47.9839Z" fill="#92948C" stroke="#92948C" stroke-width="1.5" />
		<path opacity="0.6" d="M94.4128 32.0488C102.606 37.0342 108.05 46.1141 108.05 56.3506V62.4268C105.443 55.2431 99.659 49.5918 92.4373 47.1318C94.7332 41.2078 95.5253 36.2612 94.4128 32.0488Z" fill="#92948C" stroke="#92948C" stroke-width="1.5" />
	</svg>
	<svg id="circles" width="120" height="120" viewBox="0 0 120 120" fill="none" xmlns="http://www.w3.org/2000/svg">
		<path d="M92.5 63.25V81.75C92.5 97.35 77.95 110 60 110C42.05 110 27.5 97.35 27.5 81.75V63.25C27.5 78.85 42.05 90 60 90C77.95 90 92.5 78.85 92.5 63.25Z" fill="#92948C" />
		<path opacity="0.4" d="M92.5 38.25V63.25C92.5 78.85 77.95 90 60 90C42.05 90 27.5 78.85 27.5 63.25V38.25C27.5 42.8 28.75 47 30.95 50.6C36.3 59.4 47.3 65 60 65C72.7 65 83.7 59.4 89.05 50.6C91.25 47 92.5 42.8 92.5 38.25Z" fill="#92948C" />
		<path d="M92.5 38.25C92.5 42.8 91.25 47 89.05 50.6C83.7 59.4 72.7 65 60 65C47.3 65 36.3 59.4 30.95 50.6C28.75 47 27.5 42.8 27.5 38.25C27.5 22.65 42.05 10 60 10C69 10 77.1 13.15 83 18.25C88.85 23.4 92.5 30.45 92.5 38.25Z" fill="#92948C" />
	</svg>
	<svg id="shield" width="120" height="120" viewBox="0 0 120 120" fill="none" xmlns="http://www.w3.org/2000/svg">
		<path opacity="0.4" d="M102.05 34.8002V49.0002L37 96.7002L23.85 86.8502C20.6 84.4002 17.95 79.1502 17.95 75.1002V34.8002C17.95 29.2002 22.25 23.0002 27.5 21.0502L54.85 10.8002C57.7 9.7502 62.2999 9.7502 65.1499 10.8002L92.5 21.0502C97.75 23.0002 102.05 29.2002 102.05 34.8002Z" fill="#92948C" />
		<path d="M102.05 55.8501V75.1001C102.05 79.1501 99.4001 84.4001 96.1501 86.8501L68.8001 107.3C66.4001 109.1 63.2001 110 60.0001 110C56.8001 110 53.6001 109.1 51.2001 107.3L41.6001 100.15L102.05 55.8501Z" fill="#92948C" />
	</svg>
	<svg id="people" width="400" height="400" viewBox="0 0 400 400" fill="none" xmlns="http://www.w3.org/2000/svg">
		<path opacity="0.4" d="M292.167 129.5C291 129.334 289.833 129.334 288.667 129.5C262.833 128.667 242.333 107.5 242.333 81.5002C242.333 55.0002 263.833 33.3335 290.5 33.3335C317 33.3335 338.667 54.8335 338.667 81.5002C338.5 107.5 318 128.667 292.167 129.5Z" fill="#92948C" />
		<path opacity="0.4" d="M346.5 245C327.833 257.5 301.667 262.166 277.5 259C283.833 245.333 287.167 230.167 287.333 214.167C287.333 197.5 283.667 181.667 276.667 167.833C301.333 164.5 327.5 169.166 346.333 181.666C372.667 199 372.667 227.5 346.5 245Z" fill="#92948C" />
		<path opacity="0.4" d="M107.333 129.5C108.5 129.334 109.667 129.334 110.833 129.5C136.667 128.667 157.167 107.5 157.167 81.5002C157.167 55.0002 135.667 33.3335 109 33.3335C82.4999 33.3335 60.8333 54.8335 60.8333 81.5002C60.9999 107.5 81.4999 128.667 107.333 129.5Z" fill="#92948C" />
		<path opacity="0.4" d="M109.167 214.167C109.167 230.333 112.667 245.667 119 259.5C95.5 262 71 257 53 245.167C26.6667 227.667 26.6667 199.167 53 181.667C70.8333 169.667 96 164.833 119.667 167.5C112.833 181.5 109.167 197.333 109.167 214.167Z" fill="#92948C" />
		<path d="M202 264.5C200.667 264.333 199.167 264.333 197.667 264.5C167 263.5 142.5 238.333 142.5 207.333C142.5 175.667 168 150 199.833 150C231.5 150 257.167 175.667 257.167 207.333C257.167 238.333 232.833 263.5 202 264.5Z" fill="#92948C" />
		<path d="M147.833 299C122.667 315.833 122.667 343.5 147.833 360.167C176.5 379.333 223.5 379.333 252.167 360.167C277.333 343.333 277.333 315.667 252.167 299C223.667 279.833 176.667 279.833 147.833 299Z" fill="#92948C" />
	</svg>
</svg>
